<?xml version="1.0" standalone="no"?><!DOCTYPE svg PUBLIC "-//W3C//DTD SVG 1.1//EN" "http://www.w3.org/Graphics/SVG/1.1/DTD/svg11.dtd"><svg t="1695735667041" class="icon" viewBox="0 0 1024 1024" version="1.1" xmlns="http://www.w3.org/2000/svg" p-id="2132" data-spm-anchor-id="a313x.collections_detail.0.i10.4c963a81zW4AJj" xmlns:xlink="http://www.w3.org/1999/xlink" width="200" height="200"><path d="M512 85.333333C277.333333 85.333333 85.333333 277.333333 85.333333 512s192 426.666667 426.666667 426.666667 426.666667-192 426.666667-426.666667S746.666667 85.333333 512 85.333333z m0 490.666667c-34.133333 0-64-29.866667-64-64s29.866667-64 64-64 64 29.866667 64 64-29.866667 64-64 64z" fill="#1296db" p-id="2133" data-spm-anchor-id="a313x.collections_detail.0.i7.4c963a81zW4AJj" class="selected"></path><path d="M106.666667 375.466667l345.6 115.2c8.533333-17.066667 21.333333-34.133333 38.4-38.4L375.466667 106.666667c-123.733333 42.666667-226.133333 140.8-268.8 268.8zM917.333333 648.533333l-345.6-115.2c-4.266667 21.333333-21.333333 34.133333-38.4 42.666667l115.2 345.6c123.733333-46.933333 226.133333-149.333333 268.8-273.066667z" fill="#1296db" p-id="2134" data-spm-anchor-id="a313x.collections_detail.0.i6.4c963a81zW4AJj" class="selected"></path><path d="M512 960C264.533333 960 64 759.466667 64 512S264.533333 64 512 64 960 264.533333 960 512 759.466667 960 512 960z m0-853.333333c-221.866667 0-405.333333 183.466667-405.333333 405.333333s183.466667 405.333333 405.333333 405.333333 405.333333-183.466667 405.333333-405.333333-183.466667-405.333333-405.333333-405.333333zM512 597.333333c-46.933333 0-85.333333-38.4-85.333333-85.333333s38.4-85.333333 85.333333-85.333333 85.333333 38.4 85.333333 85.333333-38.4 85.333333-85.333333 85.333333z m0-128c-25.6 0-42.666667 17.066667-42.666667 42.666667s17.066667 42.666667 42.666667 42.666667 42.666667-17.066667 42.666667-42.666667-17.066667-42.666667-42.666667-42.666667z" fill="#1afa29" p-id="2135" data-spm-anchor-id="a313x.collections_detail.0.i12.4c963a81zW4AJj" class=""></path><path d="M512 439.466667c-38.4 0-72.533333 34.133333-72.533333 72.533333 0 38.4 34.133333 72.533333 72.533333 72.533333 38.4 0 72.533333-34.133333 72.533333-72.533333 0-38.4-34.133333-72.533333-72.533333-72.533333z m0 132.266666c-34.133333 0-59.733333-25.6-59.733333-59.733333s25.6-59.733333 59.733333-59.733333c34.133333 0 59.733333 25.6 59.733333 59.733333 0 34.133333-25.6 59.733333-59.733333 59.733333z" fill="#301196" p-id="2136" data-spm-anchor-id="a313x.collections_detail.0.i8.4c963a81zW4AJj" class=""></path><path d="M512 298.666667c-119.466667 0-213.333333 93.866667-213.333333 213.333333s93.866667 213.333333 213.333333 213.333333 213.333333-93.866667 213.333333-213.333333-93.866667-213.333333-213.333333-213.333333z m0 285.866666c-38.4 0-72.533333-29.866667-72.533333-72.533333s29.866667-72.533333 72.533333-72.533333c38.4 0 72.533333 29.866667 72.533333 72.533333 0 38.4-34.133333 72.533333-72.533333 72.533333z" fill="#A02D67" p-id="2137"></path><path d="M512 341.333333c-93.866667 0-170.666667 76.8-170.666667 170.666667s76.8 170.666667 170.666667 170.666667 170.666667-76.8 170.666667-170.666667-76.8-170.666667-170.666667-170.666667z m0 243.2c-38.4 0-72.533333-29.866667-72.533333-72.533333s29.866667-72.533333 72.533333-72.533333c38.4 0 72.533333 29.866667 72.533333 72.533333 0 38.4-34.133333 72.533333-72.533333 72.533333z" fill="#EDC35B" p-id="2138"></path><path d="M512 341.333333c-93.866667 0-170.666667 76.8-170.666667 170.666667s76.8 170.666667 170.666667 170.666667 170.666667-76.8 170.666667-170.666667-76.8-170.666667-170.666667-170.666667z m0 243.2c-38.4 0-72.533333-29.866667-72.533333-72.533333s29.866667-72.533333 72.533333-72.533333c38.4 0 72.533333 29.866667 72.533333 72.533333 0 38.4-34.133333 72.533333-72.533333 72.533333z" fill="#1296db" p-id="2139" data-spm-anchor-id="a313x.collections_detail.0.i9.4c963a81zW4AJj" class="selected"></path></svg>